<?xml version="1.0" encoding="utf-8"?>
<!-- Generator: Adobe Illustrator 24.1.1, SVG Export Plug-In . SVG Version: 6.00 Build 0)  -->
<svg version="1.1" id="Layer_1" xmlns="http://www.w3.org/2000/svg" xmlns:xlink="http://www.w3.org/1999/xlink" x="0px" y="0px"
	 viewBox="0 0 86 105.1" style="enable-background:new 0 0 86 105.1;" xml:space="preserve">
<style type="text/css">
	.st0{fill:#FFFFFF;}
</style>
<circle class="st0" cx="42.5" cy="51.3" r="36"/>
<path class="st0" d="M42.5,90.3c-21.5,0-39-17.5-39-39c0-21.5,17.5-39,39-39c21.5,0,39,17.5,39,39C81.5,72.8,64,90.3,42.5,90.3z
	 M42.5,18.3c-18.2,0-33,14.8-33,33s14.8,33,33,33s33-14.8,33-33C75.5,33.1,60.7,18.3,42.5,18.3z"/>
<path d="M59.7,59.7c-1.2,1.2-3.1,1.2-4.3,0l-13-13l-13,13c-1.3,1.1-3.2,0.9-4.3-0.3c-1-1.1-1-2.8,0-3.9l15.1-15.1
	c1.2-1.2,3.1-1.2,4.3,0l15.1,15.1C60.9,56.6,60.9,58.5,59.7,59.7z"/>
</svg>
