<svg xmlns="http://www.w3.org/2000/svg" viewBox="0 0 767.14 100.32"><defs><style>.cls-1{fill:#fff;}</style></defs><g id="레이어_2" data-name="레이어 2"><g id="레이어_1-2" data-name="레이어 1"><path class="cls-1" d="M51.59,96.9a48.23,48.23,0,0,0,16-9.91,48.8,48.8,0,0,0,11.09-15.8A51.42,51.42,0,0,0,82.83,50.1a51,51,0,0,0-4.18-21A48.86,48.86,0,0,0,67.56,13.33a48,48,0,0,0-16-9.91A52.89,52.89,0,0,0,32.81,0H0V100.32H32.81A52.89,52.89,0,0,0,51.59,96.9M32.81,81.45H21.87V18.87H32.81A29.89,29.89,0,0,1,44.21,21a25.25,25.25,0,0,1,8.91,6.1A28.84,28.84,0,0,1,59,36.89,37.85,37.85,0,0,1,61.2,50.1,37.52,37.52,0,0,1,59,63.19,29.52,29.52,0,0,1,53.11,73a25.7,25.7,0,0,1-8.92,6.21,29,29,0,0,1-11.38,2.2"/><polygon class="cls-1" points="156.12 81.45 112.37 81.45 112.37 57.95 151.01 57.95 151.01 39.45 112.37 39.45 112.37 18.86 154.62 18.86 154.62 0 90.5 0 90.5 100.32 156.12 100.32 156.12 81.45"/><polygon class="cls-1" points="229.41 81.45 185.66 81.45 185.66 57.95 224.3 57.95 224.3 39.45 185.66 39.45 185.66 18.86 227.92 18.86 227.92 0 163.79 0 163.79 100.32 229.41 100.32 229.41 81.45"/><path class="cls-1" d="M259,67.54h21a32.93,32.93,0,0,0,13.75-2.86A33.89,33.89,0,0,0,304.4,57.1a35.6,35.6,0,0,0,7-10.72,32.16,32.16,0,0,0,0-25,35.57,35.57,0,0,0-7-10.78A34.84,34.84,0,0,0,293.7,2.93,32.44,32.44,0,0,0,279.94,0H237.08V100.32H259Zm0-48.92h20.16a13,13,0,0,1,5.62,1.13,12.17,12.17,0,0,1,4.08,3.14,13.83,13.83,0,0,1,2.58,4.79,20.32,20.32,0,0,1,.9,6.15,19.94,19.94,0,0,1-.89,6.08,14.07,14.07,0,0,1-2.59,4.74,12.17,12.17,0,0,1-4.08,3.14,13,13,0,0,1-5.62,1.13H259Z"/><polygon class="cls-1" points="429.97 81.45 385.1 81.45 385.1 0 363.23 0 363.23 100.32 429.97 100.32 429.97 81.45"/><path class="cls-1" d="M462.88,83.37c.37-1.22.78-2.42,1.22-3.57h35.06l7.6,20.52h22.33L490.28,0H474L434.55,100.32h22.29l.55-1.34c.68-1.66,1.31-3.41,1.87-5.21s1.13-3.46,1.75-5.1,1.32-3.45,1.87-5.3m8.49-22.43,10.46-27.3,10.46,27.3Z"/><polygon class="cls-1" points="546.49 100.32 568.49 100.32 568.49 59.82 605.87 0 581.22 0 557.49 38.49 533.63 0 508.98 0 546.49 59.82 546.49 100.32"/><polygon class="cls-1" points="676.06 81.45 632.31 81.45 632.31 57.95 670.95 57.95 670.95 39.45 632.31 39.45 632.31 18.86 674.57 18.86 674.57 0 610.44 0 610.44 100.32 676.06 100.32 676.06 81.45"/><path class="cls-1" d="M744.1,100.32h23L744,60.29a34,34,0,0,0,11.56-10.77,30.27,30.27,0,0,0,5.07-17A31,31,0,0,0,758,20.18,33,33,0,0,0,751,9.8a33.41,33.41,0,0,0-10.74-7.14A35,35,0,0,0,726.59,0H683.73V100.32H705.6V64.87h18ZM739,32.5c0,4.34-1.1,7.66-3.37,10.14s-5.42,3.61-9.81,3.61H705.6V18.62h20.17c4.39,0,7.59,1.2,9.81,3.66S739,28.15,739,32.5"/></g></g></svg>